<svg xmlns="http://www.w3.org/2000/svg" viewBox="0 0 750 750">
  <g id="eule-coordspace" transform="translate(0,750) scale(1,-1)">
    <g id="eule-root">
      <g id="eule-wing-left">
        <path d="M170 528 c-10 -2 -11 -11 -1 -20 6 -6 11 -15 14 -24 2 -5 2 -5 5 -5
8 0 9 2 9 11 0 8 -1 9 -4 15 l-4 6 4 0 4 0 0 9 0 9 -11 0 c-6 0 -13 -1 -16 -1z" fill="#0a0a0a"/>
        <path d="M282 456 c-1 0 1 -3 4 -7 11 -14 28 -41 32 -52 1 -5 6 -10 8 -9 1 0
1 7 1 15 l0 15 -4 8 c-2 4 -8 13 -12 19 l-8 12 -10 0 c-6 0 -11 0 -11 -1z" fill="#0a0a0a"/>
        <path d="M185 324 c0 -8 8 -48 13 -62 21 -70 52 -125 92 -164 14 -14 33 -29
36 -29 1 0 1 4 1 10 l0 10 -7 5 c-15 11 -41 40 -56 62 -19 31 -39 71 -45 97
-1 2 -2 4 -2 5 -2 2 -13 49 -14 58 l0 6 -7 1 c-4 0 -8 1 -9 2 -1 0 -2 0 -2 -1z" fill="#0a0a0a"/>
      </g>
      <g id="eule-wing-right">
        <path d="M585 562 c-44 -4 -70 -10 -108 -23 -8 -3 -17 -6 -19 -7 l-5 -1 0 -23
c0 -24 0 -24 5 -25 3 -1 3 -1 3 4 2 10 8 23 14 30 4 4 8 6 35 13 42 13 94 19
126 15 10 -1 15 2 15 9 0 5 -5 8 -14 8 -11 1 -43 1 -52 0z" fill="#0a0a0a"/>
        <path d="M345 450 c-6 -9 -10 -14 -14 -23 -3 -7 -4 -9 -5 -6 -2 4 -3 -1 -3
-17 l0 -16 3 -1 c4 -1 8 2 10 8 2 3 3 6 3 6 0 1 2 7 8 19 5 11 14 23 20 31 2
2 4 5 3 5 0 1 -5 1 -10 1 l-11 0 -4 -7z" fill="#0a0a0a"/>
        <path d="M488 339 c-4 -2 -7 -5 -7 -6 0 0 1 -4 3 -9 2 -4 5 -12 7 -18 2 -6 10
-27 17 -46 7 -20 14 -39 16 -43 1 -4 3 -10 5 -14 1 -4 3 -9 4 -10 0 -2 2 -8 4
-13 4 -10 36 -98 41 -110 1 -4 2 -8 3 -9 0 -2 1 -5 1 -6 1 -2 1 -2 -9 -2 -16
0 -39 4 -49 9 -3 1 -7 3 -9 4 -29 13 -50 27 -77 51 -33 31 -64 77 -82 121 l-1
3 -9 0 c-8 0 -9 0 -9 -2 0 -2 8 -19 15 -34 28 -57 76 -111 124 -139 3 -2 7 -4
8 -5 5 -5 37 -18 53 -22 3 0 9 -2 12 -2 7 -2 41 -2 47 0 4 1 8 5 8 8 0 2 -1 5
-2 9 -2 4 -8 20 -14 37 -5 16 -11 31 -11 33 -2 2 -3 7 -8 20 -1 3 -3 8 -4 11
-1 3 -3 7 -4 10 -1 3 -2 6 -2 6 0 1 -1 3 -1 4 -3 6 -6 14 -16 44 -6 15 -11 29
-12 31 0 1 -1 3 -2 5 -1 2 -2 5 -3 7 0 1 -1 3 -1 4 0 1 -1 3 -1 4 -1 2 -3 8
-5 13 -3 8 -7 18 -9 25 -1 1 -4 10 -7 19 -4 10 -7 17 -7 17 0 0 -4 -2 -7 -5z" fill="#0a0a0a"/>
        <path d="M324 90 c-1 0 -1 -5 -1 -10 l0 -10 7 -4 c5 -2 8 -4 8 -5 1 -1 17 -7
20 -7 5 0 8 3 8 8 0 6 -2 8 -9 11 -9 3 -18 8 -26 13 -4 3 -7 5 -7 4z" fill="#0a0a0a"/>
      </g>
      <g id="eule-head">
        <g id="eule-brow">
          <path d="M444 526 c-36 -16 -61 -32 -80 -52 -8 -9 -16 -18 -16 -20 0 -1 3 -1
10 -1 l10 0 9 9 c16 16 33 29 54 39 20 10 20 10 17 3 -1 -3 -5 -19 -5 -20 1 0
12 0 13 0 1 1 1 7 1 24 0 27 1 25 -13 18z" fill="#0a0a0a"/>
        <path d="M193 520 l0 -9 7 -1 c13 -2 28 -9 41 -18 13 -8 30 -24 39 -35 l3 -4
11 0 c7 0 10 0 10 1 0 2 -15 20 -24 29 -8 8 -20 18 -32 26 -13 8 -37 18 -50
19 l-5 1 0 -9z" fill="#0a0a0a"/>
        <path d="M194 500 c-2 -1 -1 -18 0 -19 2 -1 8 0 8 1 0 2 -7 19 -7 19 -1 0 -1
0 -1 -1z" fill="#0a0a0a"/>
        </g>
        <g id="eule-face">
          <g id="eule-eye-left">
            <path d="M191 483 c-8 -1 -8 -2 -5 -7 0 -1 -1 -2 -2 -3 -6 -1 -17 -7 -23 -12
-12 -10 -21 -23 -26 -38 -4 -12 -4 -32 0 -43 2 -5 3 -9 3 -9 0 -1 2 -4 4 -7 8
-14 19 -25 33 -32 8 -4 9 -5 9 -8 1 -3 3 -4 14 -6 l5 0 0 3 0 3 8 0 c49 0 85
47 74 95 -8 33 -40 59 -75 59 l-7 0 -1 3 c-1 4 -2 4 -11 2z m31 -36 c24 -5 40
-29 36 -54 -2 -7 -3 -10 -9 -20 0 -2 -3 -5 -6 -7 -21 -20 -58 -16 -74 8 -9 15
-11 33 -4 47 11 21 34 32 57 26z" fill="#0a0a0a"/>
            <g id="eule-pupil-left"><path d="M198 430 c-6 -3 -13 -9 -16 -15 -4 -6 -4 -21 0 -27 3 -5 9 -11 14
-14 3 -1 5 -2 5 -2 1 -1 4 -1 9 -1 4 0 7 0 8 1 0 0 2 1 5 2 16 7 22 28 13 43
-8 13 -24 18 -38 13z" fill="#0a0a0a"/></g>
          </g>
          <g id="eule-eye-right">
            <path d="M444 487 c-1 0 -1 -2 -1 -4 l0 -3 -6 0 c-31 -1 -57 -20 -70 -51 -2
-7 -2 -8 -2 -24 0 -17 0 -18 3 -26 4 -11 7 -17 12 -23 10 -12 23 -21 37 -26 8
-2 10 -2 24 -2 17 0 22 0 33 6 l6 3 1 -3 1 -3 7 5 c7 5 8 6 6 9 -1 2 0 3 4 8
15 16 22 41 18 64 -4 26 -25 50 -50 59 l-7 3 1 3 c0 3 0 4 -2 4 -2 1 -14 2
-15 1z m12 -38 c23 -7 37 -29 33 -52 -1 -7 -5 -18 -9 -22 -1 -1 -2 -2 -2 -3
-1 -1 -4 -4 -7 -6 -20 -15 -48 -14 -64 3 -20 20 -20 49 -1 68 13 13 32 18 50
12z" fill="#0a0a0a"/>
            <g id="eule-pupil-right"><path d="M434 434 c-24 -5 -32 -35 -14 -52 16 -14 40 -9 49 9 3 8 3 21 -1 28
-7 12 -21 18 -34 15z" fill="#0a0a0a"/></g>
          </g>
          <g id="eule-lid-left" opacity="0">
            <ellipse cx="209" cy="402" rx="74" ry="41" fill="#0a0a0a"/>
          </g>
          <g id="eule-lid-right" opacity="0">
            <ellipse cx="440" cy="405" rx="74" ry="41" fill="#0a0a0a"/>
          </g>
          <g id="eule-beak">
            <path d="M322 315 c-2 -2 -3 -3 -3 -6 0 -9 9 -46 13 -56 0 -2 2 -6 3 -9 l2 -7
9 0 c5 0 9 0 9 1 0 0 -1 5 -3 11 -4 11 -7 20 -9 28 -1 2 -2 6 -2 9 -1 3 -3 10
-4 17 -2 12 -4 14 -9 14 -2 0 -5 -1 -6 -2z" fill="#0a0a0a"/>
          </g>
        </g>
      </g>
    </g>
  </g>
</svg>
