<svg xmlns="http://www.w3.org/2000/svg" viewBox="97 113 587 587">
  <g id="eule-coordspace" transform="translate(0,750) scale(1,-1)">
    <g id="eule-root">
      <g id="eule-silhouette">
        <path d="M585 562 c-35 -4 -53 -7 -79 -14 -94 -27 -147 -63 -174 -120 -2 -4
-4 -8 -5 -8 0 -1 -2 2 -4 6 -16 28 -40 57 -61 73 -19 14 -34 22 -50 27 -11 3
-31 4 -40 2 -12 -2 -13 -10 -3 -20 11 -11 20 -35 14 -35 -1 0 -4 -2 -8 -4 -19
-9 -33 -26 -40 -46 -4 -12 -4 -32 0 -43 2 -5 3 -9 3 -9 0 -1 2 -4 4 -7 8 -14
19 -25 33 -32 l9 -4 1 -6 c1 -3 2 -10 2 -14 4 -24 8 -38 17 -64 26 -81 75
-150 127 -178 3 -2 6 -4 7 -4 1 -2 17 -8 20 -8 5 0 8 3 8 8 0 6 -2 8 -10 12
-42 15 -86 63 -116 125 -10 20 -18 42 -21 54 -1 2 -2 4 -2 5 -1 0 -8 29 -11
46 -1 3 -2 10 -3 13 l0 7 8 0 c49 0 85 47 74 95 -8 33 -40 59 -75 59 l-7 0 -2
7 c-3 9 -6 16 -9 22 l-3 4 3 0 c10 0 29 -6 42 -14 21 -12 45 -36 63 -62 6 -9
18 -32 21 -38 4 -12 13 -13 18 -2 2 3 3 6 3 6 0 1 2 7 8 19 17 34 46 62 84 81
20 10 20 10 17 3 -1 -4 -5 -19 -5 -21 0 -2 -1 -3 -6 -3 -31 -1 -57 -20 -70
-51 -2 -7 -2 -8 -2 -24 0 -17 0 -18 3 -26 4 -11 7 -17 12 -23 10 -12 23 -21
37 -26 8 -2 10 -2 24 -2 16 0 23 1 34 6 l5 3 3 -10 c2 -6 6 -15 8 -21 2 -6 10
-27 17 -46 7 -20 14 -39 16 -43 1 -4 3 -10 5 -14 1 -4 3 -9 4 -10 0 -2 2 -8 4
-13 4 -10 36 -98 41 -110 1 -4 2 -8 3 -9 0 -2 1 -5 1 -6 1 -2 1 -2 -9 -2 -16
0 -39 4 -49 9 -3 1 -7 3 -9 4 -29 13 -50 27 -77 51 -38 36 -74 92 -90 143 -1
3 -3 8 -4 11 0 2 -1 5 -2 7 0 2 -1 6 -2 9 0 2 -2 9 -3 16 -2 12 -4 14 -9 14
-6 0 -9 -3 -9 -8 0 -9 9 -46 13 -56 0 -2 2 -5 3 -9 8 -23 27 -60 43 -83 27
-39 64 -75 98 -95 3 -2 7 -4 8 -5 5 -5 37 -18 53 -22 3 0 9 -2 12 -2 7 -2 41
-2 47 0 4 1 8 5 8 8 0 2 -1 5 -2 9 -2 4 -8 20 -14 37 -5 16 -11 31 -11 33 -2
2 -3 7 -8 20 -1 3 -3 8 -4 11 -1 3 -3 7 -4 10 -1 3 -2 6 -2 6 0 1 -1 3 -1 4
-3 6 -6 14 -16 44 -6 15 -11 29 -12 31 0 1 -1 3 -2 5 -1 2 -2 5 -3 7 0 1 -1 3
-1 4 0 1 -1 3 -1 4 -1 2 -3 8 -5 13 -2 4 -4 11 -6 15 -1 4 -3 8 -3 9 0 1 -4
11 -8 21 l-7 19 5 6 c15 16 22 41 18 64 -4 26 -24 50 -50 59 -4 1 -7 2 -7 3 0
0 3 15 5 20 2 7 7 14 10 18 4 4 8 6 35 13 42 13 94 19 126 15 10 -1 15 2 15 9
0 5 -5 8 -14 8 -11 1 -43 1 -52 0z m-129 -113 c23 -7 37 -29 33 -52 -1 -7 -5
-18 -9 -22 -1 -1 -2 -2 -2 -3 -1 -1 -4 -4 -7 -6 -20 -15 -48 -14 -64 3 -20 20
-20 49 -1 68 13 13 32 18 50 12z m-234 -2 c24 -5 40 -29 36 -54 -2 -7 -3 -10
-9 -20 0 -2 -3 -5 -6 -7 -21 -20 -58 -16 -74 8 -9 15 -11 33 -4 47 11 21 34
32 57 26z" fill="#0a0a0a"/>
      </g>
      <g id="eule-pupil-left">
        <path d="M198 430 c-6 -3 -13 -9 -16 -15 -4 -6 -4 -21 0 -27 3 -5 9 -11 14
-14 3 -1 5 -2 5 -2 1 -1 4 -1 9 -1 4 0 7 0 8 1 0 0 2 1 5 2 16 7 22 28 13 43
-8 13 -24 18 -38 13z" fill="#0a0a0a"/>
      </g>
      <g id="eule-pupil-right">
        <path d="M434 434 c-24 -5 -32 -35 -14 -52 16 -14 40 -9 49 9 3 8 3 21 -1 28
-7 12 -21 18 -34 15z" fill="#0a0a0a"/>
      </g>
      <g id="eule-lid-left" opacity="0">
        <ellipse cx="210" cy="400" rx="53" ry="54" fill="#0a0a0a"/>
      </g>
      <g id="eule-lid-right" opacity="0">
        <ellipse cx="440" cy="403" rx="53" ry="52" fill="#0a0a0a"/>
      </g>
      <path id="eule-trace" d="M585 562 c-35 -4 -53 -7 -79 -14 -94 -27 -147 -63 -174 -120 -2 -4
-4 -8 -5 -8 0 -1 -2 2 -4 6 -16 28 -40 57 -61 73 -19 14 -34 22 -50 27 -11 3
-31 4 -40 2 -12 -2 -13 -10 -3 -20 11 -11 20 -35 14 -35 -1 0 -4 -2 -8 -4 -19
-9 -33 -26 -40 -46 -4 -12 -4 -32 0 -43 2 -5 3 -9 3 -9 0 -1 2 -4 4 -7 8 -14
19 -25 33 -32 l9 -4 1 -6 c1 -3 2 -10 2 -14 4 -24 8 -38 17 -64 26 -81 75
-150 127 -178 3 -2 6 -4 7 -4 1 -2 17 -8 20 -8 5 0 8 3 8 8 0 6 -2 8 -10 12
-42 15 -86 63 -116 125 -10 20 -18 42 -21 54 -1 2 -2 4 -2 5 -1 0 -8 29 -11
46 -1 3 -2 10 -3 13 l0 7 8 0 c49 0 85 47 74 95 -8 33 -40 59 -75 59 l-7 0 -2
7 c-3 9 -6 16 -9 22 l-3 4 3 0 c10 0 29 -6 42 -14 21 -12 45 -36 63 -62 6 -9
18 -32 21 -38 4 -12 13 -13 18 -2 2 3 3 6 3 6 0 1 2 7 8 19 17 34 46 62 84 81
20 10 20 10 17 3 -1 -4 -5 -19 -5 -21 0 -2 -1 -3 -6 -3 -31 -1 -57 -20 -70
-51 -2 -7 -2 -8 -2 -24 0 -17 0 -18 3 -26 4 -11 7 -17 12 -23 10 -12 23 -21
37 -26 8 -2 10 -2 24 -2 16 0 23 1 34 6 l5 3 3 -10 c2 -6 6 -15 8 -21 2 -6 10
-27 17 -46 7 -20 14 -39 16 -43 1 -4 3 -10 5 -14 1 -4 3 -9 4 -10 0 -2 2 -8 4
-13 4 -10 36 -98 41 -110 1 -4 2 -8 3 -9 0 -2 1 -5 1 -6 1 -2 1 -2 -9 -2 -16
0 -39 4 -49 9 -3 1 -7 3 -9 4 -29 13 -50 27 -77 51 -38 36 -74 92 -90 143 -1
3 -3 8 -4 11 0 2 -1 5 -2 7 0 2 -1 6 -2 9 0 2 -2 9 -3 16 -2 12 -4 14 -9 14
-6 0 -9 -3 -9 -8 0 -9 9 -46 13 -56 0 -2 2 -5 3 -9 8 -23 27 -60 43 -83 27
-39 64 -75 98 -95 3 -2 7 -4 8 -5 5 -5 37 -18 53 -22 3 0 9 -2 12 -2 7 -2 41
-2 47 0 4 1 8 5 8 8 0 2 -1 5 -2 9 -2 4 -8 20 -14 37 -5 16 -11 31 -11 33 -2
2 -3 7 -8 20 -1 3 -3 8 -4 11 -1 3 -3 7 -4 10 -1 3 -2 6 -2 6 0 1 -1 3 -1 4
-3 6 -6 14 -16 44 -6 15 -11 29 -12 31 0 1 -1 3 -2 5 -1 2 -2 5 -3 7 0 1 -1 3
-1 4 0 1 -1 3 -1 4 -1 2 -3 8 -5 13 -2 4 -4 11 -6 15 -1 4 -3 8 -3 9 0 1 -4
11 -8 21 l-7 19 5 6 c15 16 22 41 18 64 -4 26 -24 50 -50 59 -4 1 -7 2 -7 3 0
0 3 15 5 20 2 7 7 14 10 18 4 4 8 6 35 13 42 13 94 19 126 15 10 -1 15 2 15 9
0 5 -5 8 -14 8 -11 1 -43 1 -52 0z m-129 -113 c23 -7 37 -29 33 -52 -1 -7 -5
-18 -9 -22 -1 -1 -2 -2 -2 -3 -1 -1 -4 -4 -7 -6 -20 -15 -48 -14 -64 3 -20 20
-20 49 -1 68 13 13 32 18 50 12z m-234 -2 c24 -5 40 -29 36 -54 -2 -7 -3 -10
-9 -20 0 -2 -3 -5 -6 -7 -21 -20 -58 -16 -74 8 -9 15 -11 33 -4 47 11 21 34
32 57 26z" fill="none"
            stroke="#ffffff" stroke-width="4"
            pathLength="100"
            stroke-dasharray="0 100" stroke-dashoffset="0"
            opacity="0"/>
    </g>
  </g>
</svg>
