<svg xmlns="http://www.w3.org/2000/svg" viewBox="0 0 750 750">
  <g id="eule-coordspace" transform="translate(0,750) scale(1,-1)">
    <g id="eule-root">
      <g id="eule-wing-left">
        <path d="M170 528 c-10 -2 -11 -11 -1 -20 5 -6 11 -15 14 -23 1 -2 1 -5 2 -5
0 0 2 0 5 1 l5 1 0 10 c0 9 0 10 -3 14 l-3 5 3 0 3 0 0 9 0 9 -10 0 c-6 0 -12
-1 -15 -1z" fill="#0a0a0a"/>
        <path d="M287 449 c11 -14 26 -41 31 -52 1 -4 5 -9 6 -9 1 0 1 8 1 17 l0 17
-3 6 c-2 4 -7 11 -11 17 l-6 10 -12 0 -11 0 5 -6z" fill="#0a0a0a"/>
        <path d="M185 320 c1 -2 2 -8 2 -12 4 -24 8 -38 17 -64 24 -74 68 -139 115
-171 l6 -4 0 11 0 11 -5 3 c-8 5 -31 29 -41 42 -25 31 -51 82 -60 116 -1 2 -2
4 -2 6 -2 4 -10 39 -13 55 l-1 7 -7 1 c-4 0 -8 1 -9 2 -2 0 -2 0 -2 -3z" fill="#0a0a0a"/>
      </g>
      <g id="eule-wing-right">
        <path d="M585 562 c-47 -5 -85 -14 -124 -29 l-5 -2 -1 -23 c0 -19 0 -23 1 -23
1 0 3 0 3 -1 1 0 2 1 3 5 2 11 7 22 13 28 4 4 8 6 35 13 42 13 94 19 126 15
10 -1 15 2 15 9 0 5 -5 8 -14 8 -11 1 -43 1 -52 0z" fill="#0a0a0a"/>
        <path d="M346 452 c-2 -3 -5 -7 -9 -14 -1 -2 -4 -7 -6 -11 -3 -7 -4 -9 -5 -7
-1 1 -1 -6 -1 -16 0 -19 0 -19 6 -16 2 1 8 11 8 13 0 5 19 40 26 48 6 6 6 6
-6 6 l-11 0 -2 -3z" fill="#0a0a0a"/>
        <path d="M489 338 c-4 -3 -8 -5 -8 -5 0 -1 1 -4 3 -9 2 -4 5 -12 7 -18 2 -6
10 -27 17 -46 7 -20 14 -39 16 -43 1 -4 3 -10 5 -14 1 -4 3 -9 4 -10 0 -2 2
-8 4 -13 4 -10 36 -98 41 -110 1 -4 2 -8 3 -9 0 -2 1 -5 1 -6 1 -2 1 -2 -9 -2
-16 0 -39 4 -49 9 -3 1 -7 3 -9 4 -29 13 -50 27 -77 51 -22 21 -45 50 -62 80
-7 12 -17 34 -19 40 -1 2 -2 2 -11 2 -5 0 -9 0 -9 -1 0 -1 9 -22 15 -33 28
-57 76 -111 124 -139 3 -2 7 -4 8 -5 5 -5 37 -18 53 -22 3 0 9 -2 12 -2 7 -2
41 -2 47 0 4 1 8 5 8 8 0 2 -1 5 -2 9 -2 4 -8 20 -14 37 -5 16 -11 31 -11 33
-2 2 -3 7 -8 20 -1 3 -3 8 -4 11 -1 3 -3 7 -4 10 -1 3 -2 6 -2 6 0 1 -1 3 -1
4 -3 6 -6 14 -16 44 -6 15 -11 29 -12 31 0 1 -1 3 -2 5 -1 2 -2 5 -3 7 0 1 -1
3 -1 4 0 1 -1 3 -1 4 -1 2 -3 8 -5 13 -3 9 -7 19 -9 25 -1 2 -4 10 -7 19 -4 8
-6 15 -6 16 0 0 -4 -2 -7 -5z" fill="#0a0a0a"/>
        <path d="M325 80 l0 -11 6 -3 c3 -2 6 -4 7 -4 1 -2 17 -8 20 -8 5 0 8 3 8 8 0
6 -2 8 -9 11 -8 3 -17 7 -25 13 l-7 4 0 -10z" fill="#0a0a0a"/>
      </g>
      <g id="eule-head">
        <g id="eule-brow">
          <path d="M444 526 c-43 -18 -70 -38 -90 -63 l-6 -7 11 -1 11 0 8 8 c15 15 33
28 53 38 20 10 20 10 17 3 0 -2 -2 -7 -3 -11 l-2 -7 5 0 c2 0 5 0 5 -1 2 0 2
2 2 23 0 13 0 23 -1 23 0 0 -5 -2 -10 -5z" fill="#0a0a0a"/>
        <path d="M195 520 c0 -10 0 -9 8 -11 21 -3 51 -23 74 -48 l5 -6 11 0 11 1 -8
9 c-13 17 -28 30 -48 44 -12 8 -36 18 -49 19 l-4 1 0 -9z" fill="#0a0a0a"/>
        <path d="M195 491 c0 -8 0 -9 2 -9 0 1 2 1 3 1 2 0 2 0 0 6 -4 12 -5 13 -5 2z" fill="#0a0a0a"/>
        </g>
        <g id="eule-face">
          <g id="eule-eye-left">
            <path d="M191 481 c-6 -1 -7 -2 -6 -3 1 -4 1 -4 -1 -5 -6 -1 -17 -8 -23 -12
-12 -10 -21 -23 -26 -38 -4 -12 -4 -32 0 -43 2 -5 3 -9 3 -9 0 -1 2 -4 4 -7 8
-14 18 -25 33 -32 6 -3 9 -5 9 -6 1 -3 5 -4 13 -6 6 0 6 0 6 2 0 2 1 2 8 2 49
0 85 47 74 95 -8 33 -40 59 -75 59 -7 0 -7 0 -8 3 0 2 -2 3 -11 0z m31 -34
c24 -5 40 -29 36 -54 -2 -7 -3 -10 -9 -20 0 -2 -3 -5 -6 -7 -21 -20 -58 -16
-74 8 -9 15 -11 33 -4 47 11 21 34 32 57 26z" fill="#0a0a0a"/>
            <g id="eule-pupil-left"><path d="M198 430 c-6 -3 -13 -9 -16 -15 -4 -6 -4 -21 0 -27 3 -5 9 -11 14
-14 3 -1 5 -2 5 -2 1 -1 4 -1 9 -1 4 0 7 0 8 1 0 0 2 1 5 2 16 7 22 28 13 43
-8 13 -24 18 -38 13z" fill="#0a0a0a"/></g>
          </g>
          <g id="eule-eye-right">
            <path d="M443 483 c0 -3 0 -3 -6 -3 -31 -1 -57 -20 -70 -51 -2 -7 -2 -8 -2
-24 0 -17 0 -18 3 -26 4 -11 7 -17 12 -23 10 -12 23 -21 37 -26 8 -2 10 -2 24
-2 17 0 22 0 33 6 4 2 6 2 6 1 0 -2 2 -2 9 3 6 5 7 5 6 7 -1 2 0 3 4 8 15 16
22 41 18 64 -4 26 -25 50 -50 59 -7 2 -7 3 -7 5 1 3 0 4 -10 5 l-7 0 0 -3z
m13 -34 c23 -7 37 -29 33 -52 -1 -7 -5 -18 -9 -22 -1 -1 -2 -2 -2 -3 -1 -1 -4
-4 -7 -6 -20 -15 -48 -14 -64 3 -20 20 -20 49 -1 68 13 13 32 18 50 12z" fill="#0a0a0a"/>
            <g id="eule-pupil-right"><path d="M434 434 c-24 -5 -32 -35 -14 -52 16 -14 40 -9 49 9 3 8 3 21 -1 28
-7 12 -21 18 -34 15z" fill="#0a0a0a"/></g>
          </g>
          <g id="eule-lid-left" opacity="0">
            <ellipse cx="209" cy="402" rx="74" ry="41" fill="#0a0a0a"/>
          </g>
          <g id="eule-lid-right" opacity="0">
            <ellipse cx="440" cy="405" rx="74" ry="41" fill="#0a0a0a"/>
          </g>
          <g id="eule-beak">
            <path d="M322 315 c-2 -2 -3 -3 -3 -6 0 -8 8 -43 13 -56 0 -1 1 -4 2 -7 l3 -6
9 -1 c5 0 9 0 9 0 0 1 -2 5 -4 11 -3 10 -6 20 -8 27 -1 2 -2 6 -2 9 -1 3 -3
10 -4 17 -2 12 -4 14 -9 14 -2 0 -5 -1 -6 -2z" fill="#0a0a0a"/>
          </g>
        </g>
      </g>
    </g>
  </g>
</svg>
